<svg width="54" height="55" viewBox="0 0 54 55" fill="none" xmlns="http://www.w3.org/2000/svg">
<g clip-path="url(#clip0_34_360)">
<path d="M12.9372 44.4088C13.2086 43.4361 13.1803 41.5563 12.8407 40.3737C12.7774 40.3502 12.7141 40.3266 12.6509 40.3031C12.1364 40.7769 11.8333 41.3379 11.5919 41.9326C10.7844 44.061 11.5886 44.654 11.6019 46.3339C10.2799 44.5717 9.15098 42.702 8.21523 40.7567C8.35843 38.5325 9.39574 39.438 10.0401 36.4192C10.1583 35.8061 10.2516 35.1811 10.1916 34.4504C10.135 34.4134 10.0784 34.3765 10.0235 34.3412C9.4357 34.6553 9.03276 35.0955 8.67811 35.581C7.441 37.3751 8.1503 37.995 7.71906 39.6749C6.86823 37.7312 6.20721 35.717 5.73768 33.6642C6.13229 32.0297 6.52357 32.3354 7.50427 31.3443C8.08037 30.7479 8.76636 29.2931 8.8929 28.0987C8.84461 28.0517 8.79799 28.003 8.75137 27.9542C8.13698 28.1021 7.66911 28.4145 7.24286 28.7774C5.50291 30.3313 6.55354 30.6236 5.47793 32.416C5.09331 30.3834 4.89351 28.3188 4.88019 26.2492C5.88087 23.8889 6.50026 25.4966 8.19192 23.1481C8.50328 22.6912 8.793 22.2124 8.98781 21.5606C8.95284 21.5018 8.91621 21.4447 8.88124 21.3859C8.27684 21.3724 7.78399 21.5555 7.31779 21.7907C5.33641 22.8726 6.33542 23.4857 4.8985 24.8616C4.96843 22.8407 5.21486 20.8214 5.64277 18.8291C6.80163 17.0484 6.59516 17.8077 8.26019 17.2601C9.10269 16.9745 10.0917 15.9094 10.5146 15.0863C10.4963 15.0224 10.4747 14.9569 10.453 14.8914C9.51895 14.6176 8.2785 14.9502 7.62748 15.597C6.88321 16.3546 6.99144 16.8031 6.00575 17.3189C6.52523 15.3399 7.22787 13.3963 8.112 11.5115C8.12865 11.5333 8.14697 11.5552 8.16362 11.5787C10.3032 9.36793 10.0751 11.414 12.2995 10.0382C12.7141 9.76607 13.1221 9.45865 13.525 8.94292C13.52 8.87236 13.5133 8.80181 13.5083 8.73125C12.7258 8.24576 11.527 8.27432 10.7944 8.75309C10.0035 9.2873 9.86527 9.8635 8.88457 10.0684C8.89123 10.0248 8.8929 9.98277 8.90122 9.93909C10.3348 7.25631 12.1563 4.71799 14.3692 2.40814C12.2729 4.45257 10.488 6.70698 9.01778 9.11091C9.11768 7.50157 9.10436 5.99807 7.95715 4.73311C7.88223 4.76167 7.8073 4.78855 7.73238 4.81711C6.57352 6.87161 6.38204 9.21674 7.85392 11.1721C7.01142 12.7882 6.30378 14.463 5.73102 16.1749C5.45629 14.5756 4.86354 12.9847 3.59978 12.0037C3.53318 12.0457 3.46658 12.0894 3.39998 12.133C2.77893 14.4832 3.20684 16.9997 5.01839 18.5939C4.58548 20.2923 4.27911 22.0209 4.10429 23.7629C3.41164 22.2409 2.4709 20.761 0.975705 19.9714C0.920759 20.0268 0.865813 20.084 0.809202 20.1394C0.769242 22.6727 1.81488 25.1001 3.93778 26.3869C3.89283 28.1071 3.97442 29.8307 4.18254 31.5475C3.12858 30.1868 1.80655 28.8715 0.126542 28.3272C0.0849163 28.3944 0.0416256 28.4616 0 28.5288C0.574434 31.0738 2.15121 33.2879 4.61378 34.2404C4.95012 35.9153 5.40967 37.5733 5.99243 39.1978C3.90282 37.5162 2.34103 36.9198 1.09725 36.7518C1.07061 36.8274 1.04397 36.903 1.019 36.9786C2.21448 39.4077 4.27745 41.306 7.0647 41.8352C7.77567 43.3992 8.60651 44.9228 9.56057 46.3944C6.9648 45.1429 5.20986 44.859 3.93279 44.9161C3.92446 44.9967 3.91614 45.0791 3.90781 45.1597C5.72935 47.362 8.25852 48.8235 11.3039 48.8487C12.0448 49.7996 12.8407 50.7218 13.6948 51.6122C14.1444 51.1586 14.5939 50.705 15.0435 50.2514C14.0645 49.2973 13.1537 48.2944 12.3145 47.2528C12.1197 45.7897 12.5659 45.6905 12.9372 44.4088Z" fill="#FFC130"/>
<path d="M47.5505 39.2012C48.1349 37.5767 48.5928 35.9186 48.9291 34.2438C51.127 33.3938 52.9036 31.3628 53.5429 28.5322C53.5013 28.465 53.4597 28.3978 53.4164 28.3306C51.7347 28.8749 50.4143 30.1936 49.3604 31.5509C49.5685 29.8358 49.6501 28.1105 49.6051 26.3903C51.7314 25.1001 52.7737 22.671 52.7337 20.1428C52.6788 20.0874 52.6238 20.0302 52.5672 19.9748C51.082 20.7593 50.1396 22.2292 49.4386 23.7663C49.2638 22.0243 48.9574 20.2957 48.5245 18.5973C50.0314 17.2987 50.8706 14.8864 50.1429 12.1347C50.0763 12.0911 50.0097 12.0491 49.9431 12.0054C48.6727 12.9915 48.0833 14.5907 47.8119 16.1766C47.2391 14.4631 46.5315 12.7899 45.689 11.1722C47.1592 9.20837 46.9761 6.88508 45.8089 4.81714C45.734 4.78858 45.659 4.7617 45.5841 4.73314C44.4386 5.9981 44.4236 7.5016 44.5235 9.11262C43.0533 6.70869 41.2684 4.45428 39.1721 2.40985C41.3849 4.7197 43.2064 7.25802 44.64 9.9408C44.6484 9.98448 44.65 10.0248 44.6567 10.0702C43.676 9.86353 43.5378 9.28733 42.7452 8.7548C42.0126 8.27603 40.8138 8.24747 40.0312 8.73296C40.0263 8.80352 40.0196 8.87407 40.0146 8.94463C40.5557 9.6401 41.6746 10.4817 42.5221 10.554C44.0323 10.6632 43.8075 9.95928 45.376 11.5804C45.3926 11.5585 45.4093 11.535 45.4276 11.5132C46.3117 13.3963 47.0144 15.3417 47.5338 17.3206C45.8738 16.4504 46.7197 15.4744 44.6017 14.8998C44.1289 14.7873 43.641 14.7302 43.0866 14.8914C43.0649 14.957 43.0433 15.0225 43.0216 15.088C43.3247 15.6793 43.6826 16.0741 44.0539 16.4386C46.1419 18.3789 46.3084 16.4218 47.8952 18.8325C48.3231 20.8248 48.5712 22.8441 48.6394 24.865C47.0177 23.3111 48.2631 22.9079 46.2201 21.7941C45.7539 21.5589 45.2628 21.3741 44.6583 21.3893C44.6234 21.4481 44.5868 21.5052 44.5518 21.564C44.8881 22.6962 45.7956 23.8873 46.4399 24.2921C47.6754 25.0531 47.9468 24.5727 48.6594 26.2526C48.6461 28.3222 48.4463 30.3884 48.0617 32.4194C47.0527 30.7395 48.0134 30.3128 46.2967 28.7808C45.8705 28.4163 45.4026 28.1055 44.7882 27.9576C44.7416 28.0064 44.6933 28.0551 44.6467 28.1021C44.72 28.8026 44.9248 29.3587 45.1512 29.9013C46.3733 32.6345 47.2391 31.3342 47.8019 33.6676C47.3324 35.7204 46.6714 37.7346 45.8205 39.6782C45.4542 38.2487 45.8056 38.5594 45.6008 37.2609C45.4193 36.1723 44.5351 34.8889 43.5161 34.3446C43.4595 34.3815 43.4029 34.4185 43.3463 34.4538C43.0266 38.4049 45.1695 38.3696 45.3227 40.7601C44.387 42.7054 43.2581 44.5751 41.936 46.3373C41.9494 44.6574 42.7536 44.0661 41.946 41.936C41.7046 41.3413 41.4016 40.7803 40.8871 40.3065C40.8238 40.33 40.7605 40.3536 40.6973 40.3771C40.3576 41.558 40.3293 43.4378 40.6007 44.4122C40.9737 45.699 41.4182 45.793 41.2251 47.2529C40.3842 48.2961 39.4751 49.2973 38.4961 50.2515C38.9457 50.7051 39.3952 51.1586 39.8448 51.6122C40.6973 50.7218 41.4948 49.7996 42.2341 48.8488C43.5444 48.8387 44.6334 48.6035 45.6307 48.1953C47.0044 47.5653 48.3813 46.6716 49.6301 45.1648C49.6218 45.0841 49.6135 45.0018 49.6051 44.9212C48.3281 44.8657 46.5731 45.148 43.9774 46.3995C44.9314 44.9279 45.7623 43.4042 46.4732 41.8403C49.2755 41.3094 51.3318 39.3977 52.5189 36.9837C52.4923 36.9081 52.4673 36.8325 52.4407 36.7569C51.2019 36.9232 49.6401 37.5179 47.5505 39.2012Z" fill="#FFC130"/>
<path d="M26.7724 12.2018L30.8034 24.717H43.8439L33.2926 32.4513L37.3236 44.9648L26.7724 37.2305L16.2211 44.9648L20.2521 32.4513L9.69922 24.717H22.7414L26.7724 12.2018Z" fill="#FFCC5B"/>
<path d="M26.7725 12.2018V30.0641L30.8035 24.717L26.7725 12.2018Z" fill="#FFC130"/>
<path d="M26.7725 30.0641L43.844 24.717L33.2927 32.4513L26.7725 30.0641Z" fill="#FFC130"/>
<path d="M26.7725 30.0641L37.3237 44.9648L26.7725 37.2305V30.0641Z" fill="#FFC130"/>
<path d="M26.7729 30.0641L20.2527 32.4513L16.2217 44.9648L26.7729 30.0641Z" fill="#FFC130"/>
<path d="M9.69922 24.717H22.7414L26.7724 30.0641L9.69922 24.717Z" fill="#FFC130"/>
<g opacity="0.05">
<path d="M32.1671 40.3115H30.9766L33.8387 42.4097C33.8571 42.3257 33.8987 42.2535 33.9037 42.1661C33.9536 41.1531 33.1528 40.3115 32.1671 40.3115Z" fill="#010101"/>
<path d="M17.7912 43.8141L25.104 38.4535C25.1573 37.5111 26.0065 36.7921 26.9406 36.7921H28.4374C29.3732 36.7753 30.1224 36.0026 30.1224 35.04C30.1224 34.0791 29.3399 33.2879 28.3858 33.2879H25.2206C24.4031 33.2879 23.7404 32.6176 23.757 31.8112V31.6735C23.7054 30.8839 24.3365 30.1969 25.1357 30.1969H32.54C33.4924 30.1969 34.3266 29.493 34.3949 28.5489C34.4282 27.5359 33.6456 26.6943 32.6416 26.6943H25.7983C24.9991 26.6943 24.3348 26.024 24.3348 25.2177L24.3514 25.1152V25.0984C24.3348 24.24 25.0324 23.5361 25.8833 23.5361H26.4644C27.4168 23.5361 28.2509 22.8322 28.3192 21.8713C28.3525 20.8583 27.5699 20.0167 26.5659 20.0167H25.5586C25.0841 20.0167 24.6978 19.7849 24.4364 19.4422L22.7364 24.7187H9.69922L20.2505 32.453L16.5908 43.8174H17.7912V43.8141Z" fill="#010101"/>
<path d="M25.252 16.9224C25.3552 16.8988 25.4501 16.8552 25.5616 16.8552H28.2706L27.1434 13.3526H26.4025L25.252 16.9224Z" fill="#010101"/>
</g>
</g>
<defs>
<clipPath id="clip0_34_360">
<rect width="53.5422" height="54.0203" fill="white"/>
</clipPath>
</defs>
</svg>
