<svg width="76" height="77" viewBox="0 0 76 77" fill="none" xmlns="http://www.w3.org/2000/svg">
<g clip-path="url(#clip0_31_4235)">
<path d="M18.3637 63.0356C18.7489 61.655 18.7087 58.9867 18.2266 57.308C18.1368 57.2746 18.047 57.2413 17.9571 57.2079C17.2269 57.8803 16.7967 58.6767 16.454 59.5208C15.3078 62.542 16.4493 63.3837 16.4682 65.7682C14.5917 63.2669 12.9893 60.6129 11.661 57.8517C11.8643 54.6946 13.3367 55.9799 14.2513 51.6949C14.4191 50.8246 14.5515 49.9375 14.4664 48.9003C14.386 48.8478 14.3057 48.7953 14.2277 48.7453C13.3934 49.1912 12.8215 49.8159 12.3181 50.505C10.5621 53.0517 11.5689 53.9316 10.9567 56.3161C9.74904 53.5572 8.81077 50.6982 8.14429 47.7843C8.70442 45.4642 9.25982 45.8982 10.6519 44.4913C11.4696 43.6448 12.4433 41.5798 12.6229 39.8844C12.5544 39.8177 12.4882 39.7485 12.4221 39.6794C11.55 39.8892 10.8858 40.3327 10.2808 40.8478C7.81105 43.0534 9.30236 43.4683 7.7756 46.0126C7.22965 43.1274 6.94605 40.1968 6.92714 37.2591C8.34754 33.9089 9.22673 36.1908 11.628 32.8573C12.0699 32.2087 12.4811 31.5291 12.7577 30.6039C12.708 30.5205 12.656 30.4394 12.6064 30.3559C11.7485 30.3369 11.0489 30.5968 10.3872 30.9306C7.57471 32.4662 8.99275 33.3366 6.95314 35.2895C7.0524 32.4209 7.40218 29.5548 8.00958 26.7267C9.65451 24.1992 9.36145 25.277 11.7248 24.4996C12.9207 24.0942 14.3246 22.5825 14.9249 21.4141C14.8989 21.3234 14.8682 21.2304 14.8375 21.1374C13.5116 20.7488 11.7508 21.2209 10.8268 22.1389C9.77031 23.2144 9.92394 23.851 8.5248 24.5831C9.26218 21.7741 10.2595 19.0152 11.5145 16.3398C11.5381 16.3708 11.5641 16.4018 11.5878 16.4352C14.6247 13.2972 14.301 16.2015 17.4585 14.2486C18.047 13.8623 18.626 13.426 19.1979 12.6939C19.1908 12.5938 19.1814 12.4936 19.1743 12.3935C18.0635 11.7043 16.3618 11.7449 15.322 12.4245C14.1993 13.1827 14.0032 14.0006 12.6111 14.2915C12.6206 14.2295 12.6229 14.1699 12.6348 14.1079C14.6697 10.2999 17.2552 6.69688 20.3962 3.41818C17.4207 6.32013 14.8871 9.52013 12.8002 12.9324C12.942 10.648 12.9231 8.51387 11.2947 6.71834C11.1884 6.75888 11.082 6.79703 10.9757 6.83756C9.33072 9.75382 9.05893 13.0826 11.1482 15.8582C9.9523 18.152 8.94785 20.5294 8.13484 22.9592C7.74488 20.6892 6.9035 18.431 5.10968 17.0385C5.01514 17.0981 4.92061 17.1601 4.82607 17.2221C3.94452 20.558 4.55192 24.13 7.1233 26.3929C6.50882 28.8036 6.07395 31.2573 5.82579 33.73C4.84262 31.5697 3.50729 29.4689 1.38496 28.3482C1.30696 28.4269 1.22897 28.508 1.14861 28.5866C1.09189 32.1825 2.57611 35.6281 5.58945 37.4546C5.52564 39.8964 5.64145 42.3429 5.93687 44.7798C4.44084 42.8484 2.56429 40.9813 0.179619 40.2087C0.120534 40.3041 0.0590851 40.3995 0 40.4949C0.815375 44.1074 3.05352 47.2502 6.54899 48.6022C7.0264 50.9795 7.6787 53.333 8.50589 55.6389C5.53982 53.252 3.32295 52.4055 1.55748 52.167C1.51967 52.2743 1.48185 52.3816 1.4464 52.4889C3.14333 55.9369 6.07159 58.6314 10.0279 59.3825C11.0371 61.6025 12.2164 63.7653 13.5707 65.8541C9.88612 64.0776 7.39509 63.6747 5.58236 63.7557C5.57054 63.8702 5.55873 63.987 5.54691 64.1015C8.13247 67.2276 11.7225 69.3021 16.0452 69.3379C17.0969 70.6875 18.2266 71.9966 19.439 73.2604C20.0771 72.6166 20.7152 71.9727 21.3534 71.3289C19.9637 69.9745 18.6709 68.551 17.4797 67.0726C17.2032 64.9957 17.8366 64.855 18.3637 63.0356Z" fill="#FFC130"/>
<path d="M67.4948 55.6437C68.3243 53.3379 68.9743 50.9844 69.4517 48.607C72.5714 47.4005 75.0931 44.5176 76.0007 40.4997C75.9416 40.4043 75.8825 40.3089 75.821 40.2136C73.434 40.9861 71.5598 42.858 70.0638 44.7847C70.3592 42.3501 70.475 39.9012 70.4112 37.4595C73.4293 35.6282 74.9088 32.1802 74.852 28.5915C74.7741 28.5128 74.6961 28.4317 74.6157 28.353C72.5075 29.4666 71.1699 31.553 70.1749 33.7349C69.9267 31.2621 69.4918 28.8085 68.8774 26.3977C71.0162 24.5545 72.2074 21.1304 71.1746 17.2245C71.0801 17.1625 70.9855 17.1029 70.891 17.0409C69.0877 18.4406 68.2511 20.7107 67.8658 22.9617C67.0528 20.5295 66.0484 18.1545 64.8525 15.8582C66.9394 13.0707 66.6794 9.77295 65.0226 6.83762C64.9163 6.79709 64.8099 6.75893 64.7036 6.7184C63.0776 8.51393 63.0563 10.6481 63.1981 12.9348C61.1112 9.52258 58.5776 6.32257 55.6021 3.42062C58.7431 6.69932 61.3286 10.3023 63.3635 14.1104C63.3754 14.1724 63.3777 14.2296 63.3872 14.294C61.9951 14.0007 61.799 13.1828 60.674 12.4269C59.6341 11.7473 57.9324 11.7068 56.8216 12.3959C56.8145 12.4961 56.8051 12.5962 56.798 12.6964C57.5661 13.6835 59.1543 14.8782 60.3573 14.9807C62.5009 15.1357 62.1818 14.1366 64.4082 16.4376C64.4318 16.4066 64.4554 16.3733 64.4814 16.3423C65.7364 19.0153 66.7338 21.7766 67.4711 24.5855C65.1148 23.3503 66.3154 21.9649 63.3092 21.1494C62.638 20.9897 61.9455 20.9086 61.1585 21.1375C61.1278 21.2305 61.097 21.3235 61.0663 21.4165C61.4964 22.2558 62.0046 22.8162 62.5316 23.3336C65.4953 26.0877 65.7317 23.3098 67.984 26.7316C68.5914 29.5596 68.9435 32.4258 69.0404 35.2943C66.7385 33.0887 68.5063 32.5164 65.6064 30.9354C64.9447 30.6016 64.2474 30.3393 63.3895 30.3608C63.3399 30.4442 63.2879 30.5253 63.2383 30.6088C63.7157 32.2159 65.0037 33.9065 65.9184 34.4812C67.672 35.5614 68.0573 34.8794 69.0688 37.2639C69.0499 40.2016 68.7663 43.1346 68.2203 46.0174C66.7881 43.6329 68.1518 43.0273 65.7151 40.8526C65.1101 40.3352 64.446 39.894 63.5739 39.6842C63.5077 39.7533 63.4392 39.8225 63.373 39.8893C63.477 40.8836 63.7677 41.6729 64.0891 42.4431C65.8238 46.3227 67.0528 44.4771 67.8516 47.7891C67.1852 50.703 66.2469 53.562 65.0392 56.3209C64.5192 54.2917 65.0179 54.7328 64.7272 52.8896C64.4696 51.3444 63.2146 49.5227 61.7682 48.7501C61.6879 48.8026 61.6075 48.855 61.5272 48.9051C61.0734 54.5134 64.1151 54.4634 64.3325 57.8565C63.0043 60.6178 61.4019 63.2717 59.5254 65.7731C59.5443 63.3886 60.6858 62.5492 59.5395 59.5257C59.1969 58.6816 58.7667 57.8851 58.0364 57.2127C57.9466 57.2461 57.8568 57.2795 57.767 57.3129C57.2849 58.9892 57.2447 61.6574 57.6299 63.0404C58.1593 64.867 58.7904 65.0005 58.5162 67.0726C57.3227 68.5534 56.0323 69.9746 54.6426 71.329C55.2807 71.9728 55.9188 72.6166 56.5569 73.2604C57.767 71.9966 58.8991 70.6876 59.9484 69.3379C61.8084 69.3236 63.3541 68.9898 64.7698 68.4103C66.7196 67.5162 68.6741 66.2476 70.4467 64.1087C70.4348 63.9942 70.423 63.8774 70.4112 63.7629C68.5985 63.6843 66.1075 64.0849 62.4229 65.8613C63.7771 63.7725 64.9565 61.6097 65.9656 59.3898C69.9433 58.6363 72.8621 55.9227 74.5472 52.4962C74.5094 52.3888 74.4739 52.2815 74.4361 52.1742C72.6777 52.4103 70.4608 53.2544 67.4948 55.6437Z" fill="#FFC130"/>
<path d="M38.0019 17.3198L43.7237 35.0844H62.2339L47.257 46.0627L52.9788 63.8248L38.0019 52.8466L23.025 63.8248L28.7468 46.0627L13.7676 35.0844H32.2801L38.0019 17.3198Z" fill="#FFCC5B"/>
<path d="M38.002 17.3198V42.6743L43.7238 35.0844L38.002 17.3198Z" fill="#FFC130"/>
<path d="M38.002 42.6743L62.2339 35.0844L47.257 46.0627L38.002 42.6743Z" fill="#FFC130"/>
<path d="M38.002 42.6743L52.9788 63.8248L38.002 52.8466V42.6743Z" fill="#FFC130"/>
<path d="M38.0023 42.6743L28.7472 46.0627L23.0254 63.8249L38.0023 42.6743Z" fill="#FFC130"/>
<path d="M13.7676 35.0844H32.2801L38.0019 42.6743L13.7676 35.0844Z" fill="#FFC130"/>
<g opacity="0.05">
<path d="M45.6586 57.2198H43.9688L48.0314 60.1981C48.0574 60.0789 48.1165 59.9763 48.1236 59.8523C48.1945 58.4145 47.0577 57.2198 45.6586 57.2198Z" fill="#010101"/>
<path d="M25.2537 62.1915L35.6338 54.5825C35.7094 53.2448 36.9148 52.2243 38.2406 52.2243H40.3653C41.6936 52.2004 42.7571 51.1035 42.7571 49.7372C42.7571 48.3733 41.6463 47.2502 40.2921 47.2502H35.7992C34.6388 47.2502 33.6982 46.2988 33.7218 45.1542V44.9587C33.6485 43.8379 34.5443 42.8627 35.6787 42.8627H46.1888C47.5406 42.8627 48.7247 41.8636 48.8216 40.5235C48.8689 39.0856 47.7581 37.891 46.3329 37.891H36.6193C35.4849 37.891 34.5419 36.9396 34.5419 35.795L34.5655 35.6496V35.6257C34.5419 34.4072 35.5322 33.4081 36.7399 33.4081H37.5647C38.9166 33.4081 40.1006 32.409 40.1975 31.0451C40.2448 29.6072 39.134 28.4126 37.7089 28.4126H36.279C35.6054 28.4126 35.0571 28.0835 34.6861 27.5971L32.273 35.0868H13.7676L28.7445 46.0651L23.5497 62.1963H25.2537V62.1915Z" fill="#010101"/>
<path d="M35.8438 24.0203C35.9903 23.9869 36.125 23.9249 36.2833 23.9249H40.1286L38.5286 18.9532H37.4769L35.8438 24.0203Z" fill="#010101"/>
</g>
</g>
<defs>
<clipPath id="clip0_31_4235">
<rect width="76" height="76.6786" fill="white"/>
</clipPath>
</defs>
</svg>
