<svg width="64" height="64" viewBox="0 0 64 64" fill="none" xmlns="http://www.w3.org/2000/svg">
<path d="M34.9988 5.27856C37.9678 5.28347 39.4723 5.29917 40.7723 5.33787L41.2844 5.35462C41.8758 5.37565 42.4594 5.40203 43.163 5.435C45.9702 5.56469 47.8852 6.00879 49.567 6.66172C51.3057 7.33222 52.7743 8.23798 54.2406 9.70432C55.7048 11.1707 56.6107 12.6436 57.2834 14.3782C57.9339 16.0577 58.3782 17.9748 58.5101 20.7821C58.5415 21.4856 58.5668 22.0692 58.5877 22.6608L58.6043 23.1728C58.6428 24.4727 58.6605 25.9774 58.666 28.9463L58.6681 30.9136C58.6684 31.1539 58.6684 31.4019 58.6684 31.6578L58.6681 32.402L58.6665 34.3692C58.6615 37.3381 58.646 38.8426 58.6072 40.1427L58.5903 40.6547C58.5695 41.2462 58.5431 41.8297 58.5101 42.5333C58.3803 45.3405 57.9339 47.2555 57.2834 48.9373C56.6128 50.6761 55.7048 52.1447 54.2406 53.611C52.7743 55.0751 51.2991 55.981 49.567 56.6538C47.8852 57.3043 45.9702 57.7486 43.163 57.8805C42.4594 57.9119 41.8758 57.9372 41.2844 57.958L40.7723 57.9746C39.4723 58.0132 37.9678 58.0308 34.9988 58.0364L33.0316 58.0385C32.7913 58.0388 32.5433 58.0388 32.2874 58.0388L31.5432 58.0385L29.576 58.0369C26.607 58.0319 25.1023 58.0163 23.8024 57.9776L23.2904 57.9607C22.6988 57.9398 22.1153 57.9134 21.4118 57.8805C18.6044 57.7507 16.6918 57.3043 15.0078 56.6538C13.271 55.9831 11.8003 55.0751 10.334 53.611C8.86762 52.1447 7.96407 50.6695 7.29136 48.9373C6.63843 47.2555 6.19655 45.3405 6.06464 42.5333C6.0333 41.8297 6.00774 41.2462 5.98703 40.6547L5.97044 40.1427C5.93184 38.8426 5.91424 37.3381 5.90855 34.3692L5.9082 28.9463C5.91311 25.9774 5.92881 24.4727 5.96751 23.1728L5.98426 22.6608C6.00529 22.0692 6.03167 21.4856 6.06464 20.7821C6.19433 17.9726 6.63843 16.0599 7.29136 14.3782C7.96186 12.6414 8.86762 11.1707 10.334 9.70432C11.8003 8.23798 13.2732 7.33444 15.0078 6.66172C16.6896 6.00879 18.6022 5.56691 21.4118 5.435C22.1153 5.40366 22.6988 5.3781 23.2904 5.35739L23.8024 5.3408C25.1023 5.3022 26.607 5.28461 29.576 5.27891L34.9988 5.27856ZM32.2874 18.4672C24.9985 18.4672 19.0969 24.3753 19.0969 31.6578C19.0969 38.9466 25.005 44.8483 32.2874 44.8483C39.5762 44.8483 45.4779 38.94 45.4779 31.6578C45.4779 24.3689 39.5696 18.4672 32.2874 18.4672ZM32.2874 23.7434C36.6585 23.7434 40.2017 27.2854 40.2017 31.6578C40.2017 36.0288 36.6595 39.5721 32.2874 39.5721C27.9163 39.5721 24.3731 36.0299 24.3731 31.6578C24.3731 27.2867 27.915 23.7434 32.2874 23.7434ZM46.1374 14.5101C44.319 14.5101 42.8398 15.9871 42.8398 17.8054C42.8398 19.6237 44.3169 21.1031 46.1374 21.1031C47.9556 21.1031 49.435 19.626 49.435 17.8054C49.435 15.9871 47.9532 14.5078 46.1374 14.5101Z" fill="white"/>
</svg>
