<svg width="39" height="39" viewBox="0 0 39 39" fill="none" xmlns="http://www.w3.org/2000/svg">
<path d="M21.2735 3.22208C23.0857 3.22507 24.0041 3.23465 24.7976 3.25828L25.1102 3.2685C25.4712 3.28134 25.8274 3.29744 26.2569 3.31757C27.9704 3.39673 29.1393 3.66781 30.1659 4.06635C31.2272 4.47563 32.1237 5.0285 33.0187 5.92355C33.9124 6.8186 34.4654 7.7177 34.876 8.77646C35.2731 9.80167 35.5443 10.9718 35.6248 12.6855C35.6439 13.1149 35.6594 13.471 35.6721 13.8322L35.6823 14.1447C35.7058 14.9382 35.7166 15.8566 35.7199 17.6689L35.7212 18.8697C35.7214 19.0164 35.7214 19.1677 35.7214 19.3239L35.7212 19.7782L35.7203 20.979C35.7172 22.7912 35.7077 23.7096 35.684 24.5031L35.6737 24.8157C35.661 25.1767 35.6449 25.5329 35.6248 25.9624C35.5455 27.6759 35.2731 28.8448 34.876 29.8713C34.4666 30.9327 33.9124 31.8291 33.0187 32.7241C32.1237 33.6179 31.2232 34.1708 30.1659 34.5815C29.1393 34.9786 27.9704 35.2497 26.2569 35.3302C25.8274 35.3494 25.4712 35.3649 25.1102 35.3776L24.7976 35.3877C24.0041 35.4112 23.0857 35.422 21.2735 35.4254L20.0727 35.4267C19.926 35.4269 19.7746 35.4269 19.6184 35.4269L19.1642 35.4267L17.9634 35.4257C16.1512 35.4227 15.2327 35.4132 14.4392 35.3895L14.1267 35.3792C13.7656 35.3665 13.4094 35.3504 12.98 35.3302C11.2664 35.251 10.0989 34.9786 9.07099 34.5815C8.01087 34.1721 7.11313 33.6179 6.21808 32.7241C5.32303 31.8291 4.7715 30.9287 4.36088 29.8713C3.96233 28.8448 3.69261 27.6759 3.61209 25.9624C3.59296 25.5329 3.57736 25.1767 3.56472 24.8157L3.55459 24.5031C3.53103 23.7096 3.52029 22.7912 3.51681 20.979L3.5166 17.6689C3.5196 15.8566 3.52918 14.9382 3.5528 14.1447L3.56303 13.8322C3.57586 13.471 3.59196 13.1149 3.61209 12.6855C3.69125 10.9705 3.96233 9.80303 4.36088 8.77646C4.77015 7.71634 5.32303 6.8186 6.21808 5.92355C7.11313 5.0285 8.01222 4.47698 9.07099 4.06635C10.0976 3.66781 11.265 3.39808 12.98 3.31757C13.4094 3.29844 13.7656 3.28283 14.1267 3.27019L14.4392 3.26006C15.2327 3.2365 16.1512 3.22576 17.9634 3.22229L21.2735 3.22208ZM19.6184 11.2724C15.1693 11.2724 11.5669 14.8787 11.5669 19.3239C11.5669 23.773 15.1732 27.3754 19.6184 27.3754C24.0675 27.3754 27.6699 23.769 27.6699 19.3239C27.6699 14.8748 24.0635 11.2724 19.6184 11.2724ZM19.6184 14.493C22.2865 14.493 24.4493 16.655 24.4493 19.3239C24.4493 21.992 22.2872 24.1548 19.6184 24.1548C16.9504 24.1548 14.7875 21.9927 14.7875 19.3239C14.7875 16.6558 16.9495 14.493 19.6184 14.493ZM28.0725 8.85698C26.9625 8.85698 26.0596 9.75858 26.0596 10.8685C26.0596 11.9784 26.9612 12.8814 28.0725 12.8814C29.1823 12.8814 30.0854 11.9798 30.0854 10.8685C30.0854 9.75858 29.1809 8.85558 28.0725 8.85698Z" fill="white"/>
</svg>
