<svg width="144" height="1067" viewBox="0 0 144 1067" fill="none" xmlns="http://www.w3.org/2000/svg">
<path d="M143.59 1015.3C143.59 1033.25 136.93 1052.49 123.795 1066.73L101.04 1047.86C109.365 1038.24 115.1 1025.48 115.1 1014.56C115.1 1002.35 110.475 996.619 103.075 996.619C95.1199 996.619 92.5299 1004.2 87.5349 1016.04L80.1348 1033.62C74.3998 1048.05 62.3748 1061.55 42.3948 1061.55C19.2697 1061.55 0.76966 1040.83 0.769659 1011.6C0.769658 995.694 6.87467 978.859 18.8997 966.834L39.6197 983.299C32.7747 992.364 29.0747 1000.87 29.0747 1011.6C29.0747 1021.78 33.1447 1027.88 40.3598 1027.88C48.1298 1027.88 51.0898 1019.37 55.8998 1007.16L62.7448 989.959C69.5898 972.939 81.0599 962.764 100.485 962.764C123.425 962.764 143.59 982.004 143.59 1015.3ZM141 942.845L3.17465 967.82L3.17465 934.15L66.0748 925.454C80.5048 923.604 94.9349 921.754 109.735 919.904L109.735 919.164C94.9349 916.574 80.3198 913.799 66.0748 911.024L3.17465 896.964L3.17465 869.029L66.0748 854.784C80.1348 852.009 94.9349 849.604 109.735 846.829L109.735 845.904C94.9349 844.239 80.3198 842.389 66.0748 840.724L3.17465 831.659L3.17465 800.394L141 824.259L141 865.884L81.0598 878.279C70.5148 880.499 59.4148 882.349 49.0548 883.644L49.0548 884.384C59.4148 886.234 70.5148 887.899 81.0598 889.934L141 901.959L141 942.845ZM141 796.589L3.17465 796.589L3.17464 709.268L30.7397 709.268L30.7397 763.474L56.2698 763.474L56.2698 717.408L84.0198 717.408L84.0198 763.474L113.25 763.474L113.25 707.233L141 707.233L141 796.589ZM141 694.86L3.17464 694.86L3.17464 607.54L30.7397 607.54L30.7397 661.745L56.2698 661.745L56.2698 615.68L84.0198 615.68L84.0198 661.745L113.25 661.745L113.25 605.505L141 605.505L141 694.86ZM141 566.491L30.7397 566.491L30.7397 603.677L3.17464 603.677L3.17463 496.006L30.7397 496.006L30.7397 533.376L141 533.376L141 566.491ZM143.59 429.746C143.59 451.206 135.265 465.266 118.245 475.071L101.41 452.686C110.845 447.876 115.1 440.846 115.1 434.186C115.1 423.456 109.735 417.721 91.7899 417.721L3.17463 417.721L3.17463 384.606L94.3799 384.606C121.39 384.606 143.59 398.851 143.59 429.746ZM143.59 311.727C143.59 349.282 116.58 374.812 71.4398 374.812C26.2997 374.812 0.76963 349.282 0.769628 311.727C0.769627 274.172 26.4847 248.642 71.4398 248.642C116.58 248.642 143.59 274.172 143.59 311.727ZM115.1 311.727C115.1 293.597 98.0799 282.312 71.4398 282.312C44.7997 282.312 29.0747 293.597 29.0747 311.727C29.0747 329.857 44.7997 340.957 71.4398 340.957C98.0799 340.957 115.1 329.857 115.1 311.727ZM141 237.887L3.17462 237.887L3.17462 204.772L55.7148 204.772L55.7148 159.447L3.17462 159.447L3.17462 126.517L141 126.517L141 159.447L84.3898 159.447L84.3898 204.772L141 204.772L141 237.887ZM141 109.42L3.17462 109.42L3.17461 75.7504L69.2198 41.5253L99.7449 28.0203L99.7449 27.0953C85.1298 28.7603 65.3348 31.5353 48.8697 31.5353L3.17461 31.5353L3.17461 0.0851961L141 0.0851901L141 33.7553L74.5848 67.7954L44.4297 81.3004L44.4297 82.2254C59.7848 80.7454 78.6548 77.9704 95.3048 77.9704L141 77.9704L141 109.42Z" fill="white" fill-opacity="0.19"/>
</svg>
